<?xml version="1.0" encoding="utf-8" ?><svg xmlns="http://www.w3.org/2000/svg" xmlns:xlink="http://www.w3.org/1999/xlink" width="1024" height="1024" viewBox="0 0 1024 1024"><path fill="#FEFEFE" d="M0 0L1024 0L1024 1024L0 1024L0 0Z"/><path fill="#040203" d="M543.735 400.48C546.806 393.023 552.047 390.167 559.971 389.394C570.276 388.389 581.795 394.694 589.559 400.882C599.701 408.967 599.912 424.12 600.904 435.886C611.051 433.245 611.276 436.835 615.291 446.109C632.687 486.29 650.948 526.074 668.672 566.093C678.12 587.424 669.698 601.623 660.478 620.886C655.142 631.846 649.948 642.874 644.896 653.968C632.995 680.012 633.512 681.192 633.519 709.213C633.554 733.74 634.119 758.264 635.213 782.767C664.513 782.086 694.816 782.203 724.22 781.912C720.625 769.831 720.868 753.776 728.604 743.269C733.828 736.174 747.693 736.085 756.015 735.161L785.442 731.871L871.304 721.372C875.199 723.222 881.69 727.656 885.456 730.083L910.005 745.947C927.712 757.056 945.259 768.418 962.642 780.028C966.363 782.492 986.723 795.065 987.126 797.723C978.216 799.345 967.905 800.516 958.848 801.795L905.408 809.547L856.409 816.924C848.257 818.102 834.363 820.245 826.439 820.576C824.697 819.555 820.883 816.995 819.138 816.945L818.882 817.382C820.683 821.744 829.218 822.651 833.343 822.125C861.444 818.54 889.5 813.692 917.528 809.536L966.363 802.365C970.647 801.724 983.701 800.083 987.462 799.1C989.791 798.83 990.642 798.634 992.419 800.281C992.722 804.087 989.452 804.875 986.522 805.796C986.58 813.027 985.849 818.254 985.308 825.389C987.866 828.064 992.746 832.206 994.44 835.435C994.781 836.085 994.207 836.778 993.786 837.714C997.07 849.117 989.542 847.372 980.33 848.889C978.477 855.631 976.906 866.107 979.76 872.5C983.132 880.055 997.931 890.636 979.616 891.66C984.074 898.754 986.374 907.094 985.288 915.474C984.479 921.714 981.682 927.352 976.581 931.162C974.584 932.654 972.234 933.029 969.82 933.395C933.802 938.86 896.837 940.488 860.562 943.716C841.135 945.444 821.76 947.119 802.3 948.458C795.499 948.926 786.799 950.569 780.185 949.31C775.994 948.512 771.816 943.873 769.628 940.463C761.723 928.137 751.973 878.659 749.237 862.541C748.309 857.075 748.3 851.272 747.133 845.911C746.278 841.981 743.429 837.916 741.535 834.391C735.056 822.326 730.13 809.616 733.143 795.827L727.201 787.62C705.389 788.363 681.573 787.77 659.583 787.993L491.274 789.152C457.064 789.328 420.835 789.162 386.79 790.114C385.003 797.551 383.75 800.487 379.259 806.608C381.413 813.205 382.432 819.62 381.522 826.566C380.454 834.715 373.619 841.938 368.723 848.456L349.153 874.505L311.947 923.418C305.959 931.355 299.642 940.664 293.647 948.23C292.625 949.536 291.41 950.678 290.043 951.616C288.315 952.819 285.651 954.115 283.518 954.077C272.192 953.871 260.279 952.459 249.012 951.28C227.931 949.118 206.874 946.722 185.846 944.093L114.157 935.397C103.475 934.066 92.8686 932.835 82.0817 931.351C74.2679 930.735 67.3683 925.932 63.01 919.471C53.3485 905.148 69.6083 886.194 76.9055 874.273C81.4186 866.901 85.0454 861.788 92.2862 857.23C94.6493 849.29 96.048 837.667 91.8242 830.15C89.7838 826.518 82.147 821.987 83.8753 817.173C86.815 814.963 90.0238 813.175 93.1954 811.325C111.675 800.548 129.601 788.866 148.008 777.969C167.513 766.53 187.16 755.335 206.943 744.385C230.963 730.82 223.941 729.811 251.882 733.751C264.926 735.541 277.944 737.52 290.931 739.687C309.188 742.589 327.419 745.65 345.623 748.871C372.902 753.974 386.678 752.341 387.04 785.026C408.749 784.321 431.013 784.464 452.813 784.137C454.582 762.879 454.229 738.328 454.739 716.843C454.926 708.935 455.048 686.761 453.874 679.782C446.44 674.787 437.436 671.226 429.438 667.132C415.178 659.834 400.97 651.688 387.859 642.466C379.122 636.322 369.315 627.699 367.622 616.535C366.707 610.497 368.004 604.315 369.325 598.433C372.302 585.184 376.043 571.939 379.852 558.901C382.797 548.817 411.27 457.494 412.756 455.802C414.127 454.238 416.145 455.572 417.851 455.588C418.964 452.775 420.087 448.125 420.659 445.009C425.124 420.715 449.517 401.688 474.909 410.936C479.339 407.166 482.495 404.523 487.564 401.51C503.248 392.188 527.025 395.741 543.735 400.48Z"/><path fill="#FEFEFE" d="M605.569 440.645C607.014 441.932 610.678 450.559 611.775 452.917C619.643 469.822 626.803 487.06 634.349 504.113C644.166 526.299 655.503 547.876 664.237 570.517C665.922 574.885 667.638 581.823 667.185 586.538C666.184 596.967 659.934 608.465 655.618 618.037C646.83 637.526 635.395 658.076 629.236 678.427C627.603 683.823 627.88 702.361 627.87 708.963C627.835 733.607 628.337 758.248 629.377 782.869C573.068 784.374 515.176 783.14 458.586 784.353C459.398 771.984 462.699 685.007 459.214 677.883C455.202 669.681 387.417 645.403 374.924 621.272C373.572 618.66 372.913 616.016 372.867 613.08C372.644 598.552 383.172 568.398 387.787 553.378C396.796 523.239 407.557 492.916 416.121 462.665C425.935 467.298 443.786 468.115 455.024 469.055C454.801 479.795 451.587 493.783 449.25 504.405C442.42 535.459 435.792 566.501 429.476 597.657C429.079 599.616 429.262 601.656 430.506 603.227L431.653 603.231C435.657 600.445 436.322 594.304 437.313 589.654C456.786 600.589 470.819 601.239 492.503 603.081C491.86 616.204 491.698 634.58 501.526 644.765C506.321 639.397 508.566 633.028 511.011 626.397C521.468 636.774 531.611 645.774 547.421 644.183C560.763 642.84 569.766 633.986 577.869 624.082C579.313 628.62 582.726 640.172 588.189 640.237C594.933 636.315 596.574 607.571 596.745 599.397C596.776 597.897 594.725 592.503 594.407 590.149C596.605 588.582 599.262 587.766 601.817 586.794C603.123 590.457 605.598 602.439 608.941 603.342L610.008 602.669C612.316 596.922 602.424 568.382 601.05 560.59C595.774 530.681 588.71 501.213 578.015 472.74C576.002 467.381 573.722 461.494 572.091 456.015L571.915 455.409C580.48 447.352 594.358 443.455 605.569 440.645Z"/><path fill="#FEFEFE" d="M230.725 737.437C236.469 736.918 254.699 739.826 261.454 740.772C282.384 743.853 303.276 747.191 324.124 750.784C337.368 753.059 353.654 755.682 366.596 758.714C363.238 762.096 357.54 766.785 353.817 770.064L328.076 792.575C306.967 810.944 284.019 831.492 262.211 848.787C255.578 846.752 243.897 845.214 236.61 844.08C188.773 835.831 143.614 825.591 96.1298 816.288C102.385 812.257 109.256 808.83 115.535 804.748C152.858 780.48 191.876 759.182 230.725 737.437Z"/><path fill="#FEFEFE" d="M485.907 455.991C488.746 458.026 491.659 459.957 494.639 461.779C520.626 477.534 542.146 473.134 569.6 466.359C574.174 479.915 578.862 492.366 582.856 506.276C587.752 523.327 590.682 539.059 594.38 556.327C584.451 572.87 580.734 579.548 562.619 589.474C549.351 596.34 531.431 597.572 517.114 593.617C501.143 589.204 491.914 571.947 484.656 558.415C482.153 559.867 480.039 561.251 477.19 561.993C469.986 563.871 462.837 560.393 460.699 553.093C459.455 548.843 459.886 541.452 465.107 540.117C467.023 539.627 471.146 542.311 472.861 543.273C475.212 537.271 476.271 529.595 477.826 523.305C483.447 500.579 484.714 479.274 485.907 455.991Z"/><path fill="#040203" d="M565.955 547.137C567.179 546.921 568.105 546.99 569.336 547.014C570.395 547.53 571.348 548.195 571.737 549.337C575.391 560.054 565.586 573.302 555.801 576.802C547.674 579.709 541.784 578.374 534.682 575.246C532.274 573.802 521.346 565.204 524.95 562.639C534.186 556.064 555.004 549.174 565.955 547.137Z"/><path fill="#FEFEFE" d="M564.809 553.014C566.059 552.981 565.503 552.802 566.488 553.523C566.901 555.746 566.339 557.483 565.33 559.451C559.04 571.722 548.848 575.556 536.804 569.756C534.361 568.346 532.746 567.021 530.53 565.308C540.068 560.942 554.807 556.099 564.809 553.014Z"/><path fill="#040203" d="M541.261 521.323C553.423 521.851 562.509 537.524 551.018 545.205C549.107 544.943 548.766 544.999 547.147 543.868C546.227 540.915 550.227 538.879 550.358 535.351C550.691 526.407 539.178 529.986 541.261 521.323Z"/><path fill="#040203" d="M504.674 494.091C508.73 493.664 510.481 493.707 513.977 495.853L514.123 496.968C508.434 503.233 504.031 493.962 495.561 507.472C494.352 509.889 494.234 511.238 491.408 511.297L490.628 510.326C489.553 502.408 498.198 496.519 504.674 494.091Z"/><path fill="#040203" d="M564.069 472.169C565.598 472.466 565.85 472.7 566.563 473.866C565.625 478.141 549.096 482.854 544.634 484.349C543.31 483.644 543.747 483.912 542.677 482.763C541.757 476.858 559.688 472.673 564.069 472.169Z"/><path fill="#040203" d="M558.002 498.932C565.557 499.336 566.791 508.27 561.237 512.504C554.44 512.386 553.019 503.636 558.002 498.932Z"/><path fill="#040203" d="M514.097 516.375C521.117 515.75 523.911 524.198 520.107 529.536C512.441 532.05 511.531 521.789 514.097 516.375Z"/><path fill="#FEFEFE" d="M81.808 877.756C87.4124 880.697 112.45 883.522 120.185 884.605L237.125 900.098C249.359 901.725 261.974 902.617 273.885 903.839C289.515 905.443 300.105 941.501 272.833 939.075C273.638 938.297 274.419 937.493 275.175 936.666C281.636 929.483 286.41 914.252 278.496 907.063C276.763 906.675 277.574 906.567 275.987 907.452C275.566 909.081 277.586 913.412 277.439 917.233C277.116 925.579 274.831 929.96 269.251 935.734C253.09 935.226 229.135 932.102 212.243 930.379L113.657 920.194C103.17 918.936 92.4094 918.116 82.0425 915.972C67.6311 912.991 80.2535 888.827 85.2981 889.365C85.392 893.727 78.1821 902.339 80.9212 908.333C82.433 909.565 81.5905 909.191 83.5619 909.449C86.5831 907.873 84.7037 903.664 85.7095 900.481C86.8482 896.877 88.3069 893.441 89.7445 889.951C112.572 893.928 135.859 896.197 158.778 899.643C172.168 901.656 185.627 903.174 199.067 904.788L234.464 909.035C240.694 909.78 254.235 912.115 259.954 910.556C261.257 909.323 262.437 908.467 261.693 906.589C258.68 904.565 244.802 903.936 240.321 903.406C197.983 898.399 155.734 892.658 113.595 886.185C108.208 885.409 86.0541 883.016 82.8304 881.689C81.521 879.989 81.9468 880.356 81.808 877.756Z"/><path fill="#040203" d="M172.124 912.411C176.526 912.601 193.198 913.815 197.086 914.646C198.356 915.962 197.892 915.151 198.011 917.424C194.823 917.532 174.1 916.475 172.189 914.749L172.124 912.411Z"/><path fill="#FEFEFE" d="M975.451 849.778C975.456 849.972 974.357 855.621 974.243 856.348C972.987 864.402 973.385 868.738 975.073 876.575C955.79 879.863 930.85 881.01 910.77 883.72L845.34 892.307C832.549 894.037 819.772 895.828 806.913 897.185C803.144 897.854 800.366 893.486 799.06 890.444C797.644 887.143 801.851 876.813 799.27 874.602C792.303 877.424 792.837 903.868 807.394 902.414C840.949 899.063 874.273 893.767 907.717 889.762L949.809 884.993C956.822 884.197 967.653 883.304 974.139 881.582C977.151 880.555 979.433 880.161 981.689 882.934C981.522 884.809 981.884 884.061 980.84 885.364C976.368 886.533 964.452 887.591 959.183 888.31C915.088 894.379 870.857 899.413 826.525 903.409C816.275 904.24 804.614 905.817 794.492 904.681C788.298 903.178 785.404 896.093 784.877 890.777C783.639 878.303 788.305 869.672 799.049 863.563C800.674 864.964 802.348 866.308 804.068 867.591C807.846 870.408 810.435 871.049 815.092 870.773C869.061 867.575 922.078 857.449 975.451 849.778Z"/><path fill="#040203" d="M874.803 876.209C876.854 876.115 876.033 875.798 877.465 876.821L877.476 877.802C874.418 880.471 840.734 884.156 834.617 884.923C832.736 885.182 833.378 885.363 831.798 884.758L831.494 883.701C832.181 882.876 832.435 882.497 833.677 882.332C847.373 880.508 861.082 877.812 874.803 876.209Z"/><path fill="#040203" d="M930.765 869.214C932.507 869.101 932.772 869.044 933.553 870.407C931.244 873.171 911.302 874.762 906.106 875.512C904.555 875.547 904.143 875.764 903.069 874.691L903.5 873.816C907.829 871.535 924.987 869.827 930.765 869.214Z"/><path fill="#FEFEFE" d="M373.493 760.437C376.076 762.87 377.909 765.887 379.132 769.205C382.267 777.713 382.334 789.568 378.357 797.82C374.984 804.818 289.926 885.433 278.512 895.114C276.978 896.415 275.483 897.552 273.568 898.221C271.928 898.026 271.498 898.306 270.717 897.378L271.695 896.175C285.595 882.733 282.075 862.336 267.02 852.028C269.62 850.138 272.069 847.936 274.554 845.893C308.233 818.216 340.118 788.474 373.493 760.437Z"/><path fill="#FEFEFE" d="M981.594 805.7L982.462 805.713C983.842 808.422 977.536 820.16 982.183 832.154C970.668 834.34 959.212 836.68 947.64 838.553C936.724 840.319 925.105 840.963 914.269 842.693C885.262 847.323 856.126 851.35 826.924 854.585C813.128 842.015 827.609 836.81 822.847 831.937C820.88 831.672 821.827 831.558 819.927 832.435C817.155 836.022 816.769 840.107 816.598 844.458C817.41 850.128 818.928 850.636 821.056 855.685C819.57 856.628 816.878 856.548 815.142 856.267C806.455 854.864 807.387 842 809.284 835.799C811.162 829.661 814.23 825.891 819.733 823.035C823.407 826.427 825.251 828.134 830.499 827.925C836.921 827.67 843.131 826.63 849.485 825.728C859.288 824.346 869.083 822.913 878.87 821.431C912.689 816.26 947.771 810.263 981.594 805.7Z"/><path fill="#040203" d="M944.278 826.213C946.141 826.114 947.485 825.962 948.541 827.739C946.361 830.457 928.735 831.875 924.121 832.434C921.694 832.633 920.69 833.226 919.68 830.955L920.314 829.908C924.482 827.628 938.838 826.724 944.278 826.213Z"/><path fill="#040203" d="M898.351 835.222C900.151 835.134 900.586 834.984 902.213 835.814L902.085 836.411C898.384 838.174 876.846 840.61 871.073 841.582C869.019 841.865 868.418 842.288 866.985 841.397L866.975 840.293C869.838 837.619 893.046 835.628 898.351 835.222Z"/><path fill="#FEFEFE" d="M962.687 894.316C964.475 894.05 965.557 893.741 967.324 894.161C972.15 899.575 969.808 913.76 966.997 919.996C963.044 920.389 959.064 920.677 955.098 920.909C920.835 922.916 886.708 926.094 852.506 928.895L812.375 932.015C809.17 932.27 796.248 933.507 793.704 933.221C793.574 924.319 781.091 930.804 787.585 911.027C787.186 909.74 787.152 909.838 786.107 908.949L784.865 909.108C780.552 912.569 780.919 920.353 782.543 925.11C784.845 929.428 786.755 931.345 790.848 933.797C786.649 934.456 785.032 934.559 780.792 934.512C770.972 926.065 770.838 909.285 781.957 901.948C785.555 906.798 789.039 910.818 795.555 911.056C802.787 911.32 810.551 910.545 817.765 910.071C837.484 908.848 857.154 906.941 876.741 904.353C905.369 900.833 934.018 897.487 962.687 894.316Z"/><path fill="#FEFEFE" d="M736.895 743.753C739.375 744.266 757.37 762.96 761.33 766.745L815.624 818.007C803.272 827.776 796.724 845.523 808.257 859.233C812.509 864.287 821.672 861.684 827.548 861.266C832.681 860.901 838.446 860.139 843.715 859.579C878.64 855.662 913.502 851.198 948.288 846.189C956.251 845.106 964.198 843.903 972.125 842.581C977.161 841.771 984.239 840.359 989.242 840.414L989.271 841.06C985.436 843.702 903.754 854.148 891.582 856.274C868.842 860.246 835.233 862.921 811.466 865.485C802.023 860.11 789.313 845.435 780.862 837.078C771.484 827.882 762.251 818.541 753.164 809.057C739.05 794.391 721.75 778.627 728.539 755.988C730.168 750.554 732.447 747.273 736.895 743.753Z"/><path fill="#FEFEFE" d="M98.4146 831.984C110.509 835.5 123.19 838.137 135.503 840.88C161.249 846.705 187.137 851.889 213.141 856.426C224.199 858.463 244.295 860.713 254.104 863.57C259.297 869.601 256.011 879.929 252.231 885.933C251.509 886.703 251.325 886.815 250.497 887.477C247.472 887.481 237.157 885.656 233.636 885.084C219.322 882.702 205.035 880.164 190.776 877.469C159.63 871.989 128.411 866.934 97.1272 862.304C99.4446 850.819 100.774 843.751 98.4146 831.984Z"/><path fill="#040203" d="M135.038 859.609C141.364 859.019 172.583 863.321 178.979 865.023C179.762 866.118 179.462 866.119 179.4 867.812C175.353 867.482 171.313 867.069 167.282 866.574C162.694 866.032 136.535 863.555 134.688 861.212L135.038 859.609Z"/><path fill="#040203" d="M198.364 866.042C202.051 866.14 216.728 866.589 218.406 869.485L217.789 870.995C214.108 870.685 199.628 870.207 197.748 867.497L198.364 866.042Z"/><path fill="#FEFEFE" d="M374.321 810.975C377.462 814.49 377.016 827.097 374.436 830.921C370.932 836.116 366.664 841.206 362.915 846.294C347.263 867.579 331.401 888.708 315.331 909.679C310.399 916.029 305.178 922.183 300.126 928.444C294.786 935.062 290.478 943.669 282.681 947.703C273.035 947.354 260.353 945.625 250.606 944.552C231.065 942.391 211.536 940.128 192.019 937.762L123.928 929.816C110.26 928.293 96.6156 926.828 82.9273 925.234C76.1196 924.441 69.1793 920.408 66.5187 913.782C64.4909 908.731 66.3362 903.232 68.7241 898.677C70.0264 896.192 74.3828 887.134 76.8971 886.257L77.7856 887.272C68.4404 898.797 67.3054 907.519 75.0824 920.416C86.0737 923.55 104.115 925.187 115.979 926.494L185.527 933.67L242.332 939.784C256.265 941.273 271.045 943.473 284.947 942.64C290.814 941.542 294.958 935.01 295.291 929.742C296.083 917.204 291.613 907.484 281.514 900.03C313.378 872.005 344.037 840.784 374.321 810.975Z"/><path fill="#FEFEFE" d="M91.6965 821.65C95.9986 822.017 100.77 822.981 105.019 823.835C157.049 834.294 207.823 846.509 260.599 853.153C269.008 860.695 277.201 868.945 274.206 881.903C272.456 889.475 265.855 893.748 259.481 897.35C253.107 897.025 244.663 895.562 238.241 894.614L204.423 889.632C168.854 884.503 131.397 879.405 96.1028 872.921C93.0098 872.42 89.6186 871.634 86.5269 870.982C87.995 869.171 89.6013 866.873 91.4956 865.646C93.8679 867.147 94.3218 867.45 97.0463 867.82C148.932 874.862 201.207 886.186 252.83 893.338C257.079 889.73 260.085 884.877 261.422 879.467C263.699 870.361 261.772 859.727 251.347 857.632C241.273 855.608 231.275 854.025 221.152 852.298C205.573 849.525 190.014 846.646 174.475 843.659C147.264 838.51 122.23 831.662 95.7518 825.98L91.6965 821.65Z"/><path fill="#FEFEFE" d="M572.535 590.566C573.051 591.126 575.726 611.948 576.048 614.602C574.614 617.935 572.767 621.075 570.551 623.948C557.748 640.624 539.851 643.266 523.079 630.27C519.394 626.876 516.099 623.279 512.676 619.63C513.587 613.724 514.141 605.274 514.73 599.153C536.479 603.613 553.21 602.416 572.535 590.566Z"/><path fill="#FEFEFE" d="M737.661 801.238C740.802 802.92 762.073 826.219 765.813 829.921C775.188 839.199 785.653 849.728 794.842 859.281C787.405 863.28 783.777 868.51 780.818 876.136C779.243 882.149 779.261 884.665 779.331 890.971C768.564 875.143 759.826 860.508 751.577 843.126C744.914 829.086 736.778 817.57 737.661 801.238Z"/><path fill="#FEFEFE" d="M459.243 415.193C487.144 409.985 463.295 437.083 458.899 445.979C456.659 450.511 455.302 457.673 454.238 462.732C449.016 462.503 444.684 462.268 439.452 461.663C434.211 461.229 428.785 460.428 423.555 459.739C427.579 438.301 433.988 417.545 459.243 415.193Z"/><path fill="#040203" d="M457.607 416.429C459.372 416.857 459.909 417.467 460.839 418.946C460.668 422.135 456.536 422.658 453.533 424.722C448.982 427.85 444.357 433.137 440.529 437.17C439.863 437.359 439.596 437.284 438.876 437.284L437.814 436.195C435.597 429.172 451.78 418.229 457.607 416.429Z"/><path fill="#040203" d="M464.049 422.036C466.359 421.946 467.844 421.709 469.44 423.557C469.335 424.518 469.433 425.155 468.46 425.693C460.82 429.91 457.385 433.911 451.899 440.517L450.505 441.065C448.824 440.69 449.59 441.045 448.212 439.792C446.906 433.829 459.034 424.246 464.049 422.036Z"/><path fill="#FEFEFE" d="M558.848 395.601C561.074 395.488 566.236 395.14 567.777 396.567C566.843 397.759 566.679 397.8 566.22 399.208C567.263 401.493 573.643 406.81 576.31 406.343C577.857 405.008 577.427 405.811 577.8 403.941C576.841 400.777 574.274 399.183 571.693 397.272C587.764 403.874 593.721 411.499 594.426 429.119C594.505 431.087 595.107 435.294 594.448 436.959C588.463 439.566 583.082 441.896 576.954 444.14C565.031 422.498 568.38 420.702 548.969 402.06C552.228 398.157 554.044 396.854 558.848 395.601Z"/><path fill="#040203" d="M555.791 398.083C562.151 399.055 571.532 405.704 572.525 412.25C572.212 414.03 571.837 414.183 570.509 415.396C566.158 412.497 563.759 407.492 558.967 405.133C556.323 403.832 554.17 403.501 553.581 400.486C554.116 399.042 554.513 398.978 555.791 398.083Z"/><path fill="#FEFEFE" d="M859.546 736.16L862.007 735.91C865.444 737.305 868.892 742.934 871.188 746.14C849.627 751.061 825.113 755.092 803.182 759.245C802.968 759.277 801.464 759.503 801.235 759.459C798.733 758.984 792.785 749.969 791.312 747.971C799.251 746.196 810.212 744.743 818.552 743.379C832.243 741.127 845.909 738.721 859.546 736.16Z"/><path fill="#FEFEFE" d="M971.518 891.395C975.054 895.439 977.695 899.087 979.092 904.371C981.749 914.419 979.221 926.407 967.317 927.918C948.774 930.271 930.136 931.881 911.518 933.558L781.628 944.207C776.979 941.434 775.209 938.932 772.788 934.023L773.458 933.534C775.211 935.942 778.033 939.642 781.177 939.728C792.469 940.038 806.425 938.521 817.667 937.637C856.269 934.603 894.715 930.7 933.332 928.005C940.07 927.585 946.8 927.038 953.517 926.364C957.816 925.938 967.579 924.263 970.95 926.012C971.967 924.42 971.275 924.789 971.71 923.622C976.719 910.168 975.304 905.17 971.518 891.395Z"/><path fill="#FEFEFE" d="M442.544 563.676C446.122 565.773 448.793 569.179 451.802 571.97C460.652 580.179 472.023 584.821 483.64 587.543C487.364 588.416 496.701 587.555 499.059 589.91L498.864 590.614C495.544 591.843 495.415 592.43 493.832 595.654L493.524 596.291C493.392 597.11 493.565 596.682 492.778 597.457C488.891 597.333 483.762 596.393 479.799 595.97C461.771 594.044 454.138 592.027 438.623 583.496C439.773 576.99 440.842 570.027 442.544 563.676Z"/><path fill="#FEFEFE" d="M927.363 781.641C931.483 780.83 933.401 784.332 936.212 786.798C937.9 788.28 940.5 790.231 940.253 792.537C938.909 793.379 905.088 799.765 900.57 800.668L895.944 801.578C893.058 797.417 889.877 793.891 886.567 790.08C896.987 787.015 916.293 783.677 927.363 781.641Z"/><path fill="#FEFEFE" d="M754.134 857.798C757.471 863.095 760.107 868.809 763.165 874.275C767.484 881.994 771.926 889.662 776.325 897.338C770.974 904.409 766.965 913.555 769.689 922.513L768.767 922.763C764.257 905.218 756.333 875.703 754.134 857.798Z"/><path fill="#FEFEFE" d="M595.978 565.867C597.443 567.285 599.5 577.601 600.106 580.257C595.598 582.159 590.991 584.359 586.531 586.409L580.663 584.606C587.839 577.962 590.782 574.057 595.978 565.867Z"/><path fill="#FEFEFE" d="M510.667 418.576C521.071 417.642 540.258 423.375 549.029 429.466C550.578 430.542 550.35 431.055 550.498 432.591C543.905 431.333 535.114 427.16 528.452 425.073C522.689 423.268 517.413 422.178 511.521 420.876C510.451 419.851 510.897 420.462 510.667 418.576Z"/><path fill="#FEFEFE" d="M495.473 433.749C501.218 434.165 523.341 441.823 529.498 444.502C531.792 445.501 532.014 446.109 532.697 448.113C526.985 448.044 502.848 440.361 496.786 436.911C495.403 436.124 495.603 435.131 495.473 433.749Z"/><path fill="#FEFEFE" d="M456.836 496.935C458.448 498.883 459.119 510.94 458.088 513.397L457.149 513.352L453.797 510.069C454.737 505.676 455.902 501.357 456.836 496.935Z"/><path fill="#E2E2E2" d="M770.406 770.195C763.813 763.604 747.139 750.155 742.493 743.486C745.093 744.809 767.819 766.49 771.24 769.721L770.406 770.195Z"/><path fill="#FEFEFE" d="M578.881 595.756C581.939 596.696 586.774 598.607 589.673 600.174C590.339 600.533 590.312 601.689 590.493 602.679C586.413 601.53 580.998 599.48 578.881 595.756Z"/><path fill="#FEFEFE" d="M578.704 589.976C582.485 589.985 588.693 591.9 590.412 595.619C586.734 595.117 581.341 592.698 578.704 589.976Z"/><path fill="#FEFEFE" d="M581.147 609.259C584.065 610.363 588.785 613.067 589.576 616.217C586.02 616.111 582.23 612.637 581.147 609.259Z"/><path fill="#FEFEFE" d="M580.139 602.303C583.968 603.18 588.623 605.79 589.832 609.681C587.241 608.697 581.186 604.922 580.139 602.303Z"/><path fill="#FEFEFE" d="M507.336 609.965L507.74 610.766C506.667 613.678 501.312 617.044 498.627 619.009L498.235 618.23C498.9 616.649 505.578 611.434 507.336 609.965Z"/><path fill="#FEFEFE" d="M507.839 602.978C508.248 603.404 508.047 603.101 508.136 604.028C506.884 605.864 501.097 610.363 498.766 612.575L498.298 611.949C498.763 609.519 505.482 604.841 507.839 602.978Z"/><path fill="#FEFEFE" d="M507.664 597.433C508.065 597.533 507.823 597.431 508.266 597.943C507.167 599.609 501.559 603.454 499.295 605.471L498.81 605.909L498.5 605.902L498.133 605.391C499.616 602.463 504.78 599.418 507.664 597.433Z"/><path fill="#FEFEFE" d="M506.038 618.347C506.474 618.535 506.201 618.379 506.713 619.007C505.492 622.701 502.667 622.193 499.798 625.836L499.274 625.805L498.969 624.939C499.458 623.312 504.032 620.182 506.038 618.347Z"/><path fill="#FEFEFE" d="M582.778 617.322C586.003 618.531 587.943 619.722 588.793 623.043C587.79 622.871 586.815 622.566 585.892 622.136C583.82 621.186 583.472 619.419 582.778 617.322Z"/><path fill="#626266" d="M768.767 922.763L769.689 922.513C770.805 926.835 771.534 929.472 773.458 933.534L772.788 934.023C771.445 931.41 769.24 925.601 768.767 922.763Z"/><path fill="#C2C1C0" d="M771.24 769.721C773.902 771.956 776.676 775.141 779.032 776.97L778.87 778.139C776.6 775.765 772.896 772.522 770.406 770.195L771.24 769.721Z"/><path fill="#434243" d="M779.032 776.97C780.946 778.556 786.403 783.934 787.816 786.012C784.618 783.396 781.912 780.945 778.87 778.139L779.032 776.97Z"/><path fill="#040203" d="M582.874 809.714C597.712 807.779 630.61 810.193 644.501 815.653C647.912 816.993 658.852 845.741 660.835 850.575C669.266 871.279 677.584 892.03 685.788 912.825C690.653 925.044 695.343 937.307 700.389 949.454C701.701 952.612 705.769 961.263 704.179 964.121C701.834 964.712 698.247 962.016 695.081 960.822L694.485 960.602C694.475 963.843 695.38 966.531 692.77 968.794C689.387 970.006 683.231 967.065 678.179 966.123C678.24 969.216 678.642 971.74 676.855 974.245C674.107 975.359 663.82 971.213 660.373 970.195C651.448 967.562 642.411 965.324 633.288 963.486C609.128 958.486 584.528 954.868 559.92 957.712C558.459 960.767 557.575 962.56 554.462 964.349C548.008 968.059 535.938 968.433 528.853 966.551C523.769 965.201 522.626 963.166 520.497 959.044C515.009 958.394 509.958 958.53 504.454 958.556C463.716 960.106 431.283 970.365 393.775 984.774C388.262 986.892 390.111 972.088 390.272 969.293C379.008 971.388 386.823 967.753 379.888 962.48C379.499 960.567 379.96 959.757 380.709 957.749C386.284 942.8 392.167 927.951 398.077 913.139L416.24 866.598L428.993 834.404C430.862 829.708 434.348 820.21 436.73 816.41C440.261 815.179 450.487 813.871 454.564 813.295C484.264 809.096 512.768 808.739 541.971 816.239C556.83 811.688 567.573 810.943 582.874 809.714Z"/><path fill="#FEFEFE" d="M543.936 821.081C572.683 813.558 613.027 812.313 641.719 820.376C648.362 833.64 653.311 848.048 659.133 861.677C672.396 892.724 683.438 925.152 697.171 955.926C687.005 953.168 676.579 951.74 666.206 950.069C637.396 945.428 610.408 942.978 581.336 945.711L581.137 944.628C612.432 939.804 641.93 942.094 673.183 945.69C675.115 945.912 678.15 945.453 679.695 944.168C679.895 941.605 675.866 940.246 673.836 940.057C659.915 938.768 645.478 937.312 631.566 936.649C598.454 935.071 569.666 938.718 539.375 952.878C527.838 949.966 517.968 945.437 504.957 943.625C470.953 938.891 433.036 937.69 399.938 948.044C399.15 948.291 398.674 949.045 398.325 949.721C398.874 951.203 398.397 950.692 399.72 951.38C431.142 946.09 451.762 944.393 483.955 946.102L484.086 946.849L483.599 947.137C461.947 946.824 440.311 948.438 418.945 951.958C408.66 953.64 397.168 956.484 387.075 957.732C391.767 944.549 396.735 932.427 401.752 919.423L440.314 821.137C449.631 819.978 458.712 818.42 468.145 817.35C493.508 814.473 513.425 816.123 538.23 820.803L536.843 903.411C536.627 913.684 536.588 923.977 536.221 934.249C536.096 937.752 535.371 945.481 538.183 947.9L538.951 947.683C542.947 943.586 541.771 936.979 541.884 931.639L542.415 906.435C542.772 877.981 543.279 849.53 543.936 821.081Z"/><path fill="#FEFEFE" d="M570.388 948.691C602.746 946.053 631.85 949.558 663.819 954.823C670.626 955.944 681.964 957.429 688.198 959.44C689.275 960.772 688.955 959.983 688.801 962.021C687.004 962.833 684.328 961.575 682.47 961.191C651.009 954.694 617.068 949.119 585.1 948.938C581.157 948.989 574.764 949.858 570.738 950.439C564.668 950.632 559.727 951.619 553.191 951.573C558.016 950.265 561.8 949.39 566.71 948.451C568.499 948.803 568.92 949.205 570.388 948.691Z"/><path fill="#FEFEFE" d="M498.431 951.948C480.027 952.221 461.655 953.586 443.413 956.036C437.046 956.893 392.237 965.716 390.405 964.701L390.439 963.828C393.048 961.641 403.145 960.324 406.981 959.556C436.908 953.56 468.355 950.607 498.903 950.545L502.331 951.24C501.209 951.438 499.488 951.69 498.431 951.948Z"/><path fill="#FEFEFE" d="M395.773 971.288C403.643 970.654 415.607 967.335 423.569 965.193C434.334 962.298 442.163 960.639 453.141 958.806L453.578 959.787C441.645 961.404 407.116 972.886 396.074 977.971L395.773 971.288Z"/><path fill="#C2C1C0" d="M570.738 950.439C574.764 949.858 581.157 948.989 585.1 948.938L582.87 949.778C596.741 950.389 630.528 955.177 643.89 959.017L643.56 959.925C620.472 954.675 594.446 950.503 570.738 950.439Z"/><path fill="#FEFEFE" d="M643.89 959.017C647.684 959.796 671.124 963.965 672.616 965.655L672.814 966.853C671.592 967.61 670.806 967.198 669.045 966.733C660.475 964.47 652.227 961.902 643.56 959.925L643.89 959.017Z"/><path fill="#434243" d="M526.521 958.575C528.253 958.543 550.265 959.651 551.16 959.827C546.331 961.503 530.775 961.889 526.521 958.575Z"/><path fill="#C2C1C0" d="M483.955 946.102C489.82 946.281 503.703 946.805 508.467 949.13L507.997 948.84L508.072 949.165C500.478 946.793 490.167 948.812 483.599 947.137L484.086 946.849L483.955 946.102Z"/><path fill="#C2C1C0" d="M498.903 950.545C504.839 950.469 509.633 950.172 515.465 951.59C510.005 951.838 503.891 952.123 498.431 951.948C499.488 951.69 501.209 951.438 502.331 951.24L498.903 950.545Z"/><path fill="#C2C1C0" d="M566.71 948.451C572.789 946.293 574.511 945.486 581.137 944.628L581.336 945.711C579.18 946.07 570.677 947.205 569.636 948.394L570.388 948.691C568.92 949.205 568.499 948.803 566.71 948.451Z"/><path fill="#626266" d="M453.141 958.806C456.024 958.025 460.527 957.487 463.585 957.19C460.536 958.224 456.773 959.368 453.578 959.787L453.141 958.806Z"/><path fill="#040203" d="M875.254 35.7219C876.088 61.9732 876.498 88.2363 876.484 114.501C876.566 128.176 877.022 142.419 876.69 156.026C886.245 156.647 940.771 160.423 946.461 163.39C950.662 170.77 946.152 245.797 941.658 252.731C939.356 253.989 921.573 252.313 917.362 252.154C903.37 251.724 889.374 251.435 875.375 251.287C865.188 250.894 810.142 249.839 804.648 246.983C802.964 243.746 802.319 230.992 802.312 227.312C802.288 214.167 798.387 162.708 803.731 154.167C808.432 151.938 863.736 155.179 873.44 155.713C873.501 132.734 873.689 109.756 874.003 86.7792C874.219 69.9836 874.317 52.4247 875.254 35.7219Z"/><path fill="#FEFEFE" d="M807.182 159.245C817.351 158.404 844.011 159.559 854.783 160.298C881.782 162.151 915.811 163.61 942.388 168.004C942.651 175.583 942.123 187.937 941.779 195.734C941.097 211.204 940.591 230.331 938.407 245.509C938.419 246.477 938.368 246.313 938.085 247.28C935.641 248.402 928.384 246.954 925.422 246.792C915.393 246.303 905.359 245.909 895.322 245.609C868.605 244.962 835.084 245.157 808.921 242.12C808.077 234.231 807.823 223.265 807.521 215.137C806.645 196.518 806.532 177.872 807.182 159.245Z"/><path fill="#040203" d="M883.34 191.786L888.202 191.61C890.94 199.504 894.916 208.214 897.266 216.037C892.322 218.523 891.331 214.38 889.853 211.058L888.988 210.561L880.894 210.816L879.036 216.137C877.162 216.255 875.106 216.247 873.214 216.281C875.741 210.848 880.757 195.642 883.34 191.786Z"/><path fill="#FEFEFE" d="M885.222 198.385C886.131 199.744 887.963 204.188 887.644 206.03L886.541 206.61C884.441 206.464 884.03 206.843 882.914 205.719C882.676 203.731 884.448 200.448 885.222 198.385Z"/><path fill="#040203" d="M859.631 191.598C863.9 191.29 873.088 192.273 871.176 198.678C867.636 201.046 866.82 197.301 864.157 196.553C852.47 193.267 854.32 220.174 868.298 209.499C869.264 209.451 872.334 210.208 873.43 210.442C869.664 214.692 864.213 219.245 858.571 216.428C847.386 210.845 847.987 196.289 859.631 191.598Z"/><path fill="#040203" d="M137.576 57.762C138.158 54.4763 137.659 51.5318 138.303 48.1881L138.973 51.0277C139.588 86.1451 139.949 121.267 140.058 156.389C150.582 156.786 201.404 159.959 210.625 163.541C214.591 165.082 210.513 221.118 210.278 227.654C210.147 231.307 208.519 248.998 204.854 252.245C199.474 252.889 186.792 251.687 180.369 251.541C155.843 251.142 131.32 250.557 106.803 249.785C99.3443 249.528 75.3395 248.874 69.0376 246.788C65.0511 239.516 62.8423 158.347 67.6663 153.782C70.9014 153.049 73.8659 153.265 77.1551 153.281C97.0113 153.373 116.788 155.101 136.589 156.107C136.734 123.324 137.063 90.5415 137.576 57.762Z"/><path fill="#FEFEFE" d="M71.4181 158.977C99.9898 159.527 128.54 160.889 157.034 163.062C172.473 164.207 191.529 165.421 206.747 167.706C206.981 188.163 205.473 223.624 202.576 243.392C202.322 245.021 202.366 245.068 201.691 246.545C201.024 246.847 200.593 247.038 199.826 246.98C157.811 243.825 115.347 245.863 73.3739 242.179C71.4094 226.201 71.2227 206.327 70.8373 190.29C70.6235 181.399 70.5198 167.444 71.4181 158.977Z"/><path fill="#040203" d="M120.174 191.118C127.317 190.63 129.718 191.511 134.386 196.764L130.236 200.29C124.815 193.768 117.736 194.757 114.646 203.049C112.899 207.738 124.052 217.091 129.104 211.609C129.718 209.952 129.82 210.037 129.472 208.34C126.643 206.631 125.661 209.439 122.707 206.313C123.022 204.815 122.952 204.309 123.989 203.218C127.555 202.036 130.934 202.702 134.79 202.964C134.911 206.85 134.473 210.377 134.691 214.592C133.739 215.09 132.771 215.555 131.788 215.988C127.325 217.94 122.028 218.568 117.444 216.646C114.157 215.29 111.547 212.679 110.192 209.392C106.59 200.489 111.874 193.968 120.174 191.118Z"/><path fill="#040203" d="M156.032 191.732L163.699 191.616C160.337 194.962 157.012 198.346 153.727 201.768L159.938 211.716L163.594 217.509L156.714 217.299C154.699 214.806 151.638 209.456 149.448 206.313C148.233 207.679 146.962 209.272 145.778 210.689L145.82 211.192L145.882 212.03C146.03 213.896 146.487 215.46 145.533 216.94C143.961 217.869 141.968 217.55 140.063 217.484C140.056 208.889 140.125 200.295 140.269 191.701L146.105 191.832L146.006 202.307C149.2 199.18 153.482 195.266 156.032 191.732Z"/><path fill="#040203" d="M572.819 156.728C579.882 156.574 607.683 155.417 612.502 158.45C614.007 161.307 614.122 180.926 614.02 185.353C613.872 191.879 616.075 246.721 609.478 247.114C576.095 249.1 542.006 249.958 508.567 250.549C501.674 250.698 472.645 251.817 470.805 250.445C466.336 247.111 463.858 167.092 467.571 162.212C473.061 160.396 496.034 159.747 503.304 159.42C526.468 158.334 549.641 157.437 572.819 156.728Z"/><path fill="#FEFEFE" d="M566.58 162.724C580.456 162.32 594.339 162.263 608.218 162.554C608.557 189.759 608.775 214.725 607.327 241.932C575.745 243.164 544.15 244.039 512.549 244.557C499.804 244.942 487.057 245.25 474.308 245.481C472.092 217.15 471.389 195.503 471.5 167.124C502.27 164.689 535.556 163.859 566.58 162.724Z"/><path fill="#040203" d="M511.456 193.786C517.933 192.321 524.369 196.39 525.824 202.869C527.279 209.348 523.2 215.778 516.719 217.223C510.252 218.665 503.839 214.597 502.387 208.132C500.936 201.667 504.994 195.248 511.456 193.786Z"/><path fill="#FEFEFE" d="M513.957 197.557C522.75 199.331 522.693 210.222 514.282 213.462C505.544 210.958 506.078 200.273 513.957 197.557Z"/><path fill="#040203" d="M484.371 193.698C489.286 193.513 494.261 193.08 498.368 196.442C501.341 198.876 502.659 203.324 499.448 206.256C496.641 208.819 494.134 209.087 490.446 209.126L489.615 209.346C489.022 211.446 489.315 215.346 489.367 217.677C487.154 217.866 486.487 218.034 484.364 217.586C483.598 215.623 483.674 196.096 484.371 193.698Z"/><path fill="#FEFEFE" d="M489.072 197.906C492.177 198.302 493.777 198.069 495.65 200.366C495.98 202.182 495.677 202.624 495.076 204.348C492.885 204.843 491.436 205.334 489.574 204.181C488.649 202.372 489 200.018 489.072 197.906Z"/><path fill="#040203" d="M574.13 193.567C581.413 193.323 581.224 196.933 584.425 202.984L588.763 193.845L594.812 193.856C592.392 197.276 591.198 199.464 589.212 203.194C588.244 204.995 587.293 206.954 586.361 208.788C586.549 211.301 587.12 214.99 586.379 217.199C584.622 218.031 583.482 217.746 581.955 216.732C580.604 213.818 582.069 209.974 580.893 207.168C578.641 201.797 575.296 199.651 574.13 193.567Z"/><path fill="#040203" d="M553.925 193.503C556.997 193.526 571.239 192.905 572.848 194.062C573.189 195.749 573.442 195.933 573.061 197.506C571.163 198.271 568.15 198.035 565.994 198.025L565.923 209.173C565.959 211.35 566.297 215.547 565.295 217.223C563.325 217.382 563.349 217.405 561.43 217.003C560.538 214.867 560.958 200.971 560.984 197.946C558.858 197.932 556.559 198.458 554.686 197.638C553.592 195.992 553.983 195.88 553.925 193.503Z"/><path fill="#040203" d="M529.087 193.536C530.941 193.482 532.556 193.232 533.849 194.265C534.384 198.319 534.118 208.357 534.095 212.836C537.089 212.926 540.165 212.358 542.827 213.384C544.398 214.968 543.953 214.778 544.624 217.269C539.232 217.364 534.305 217.468 528.909 217.215C528.623 211.022 528.79 199.649 529.087 193.536Z"/><path fill="#040203" d="M546.507 193.627C548.191 193.606 550.041 193.348 551.417 194.038C551.853 198.403 551.548 212.859 551.284 217.412L550.282 217.418C548.381 217.421 547.439 217.576 546.268 216.406C545.705 211.402 546.347 199.181 546.507 193.627Z"/><path fill="#040203" d="M450.373 61.7185C455.602 61.2831 464.059 61.4869 469.48 61.4978L501.558 61.5885C523.836 61.6555 546.109 61.5929 568.387 61.5886C573.322 61.5877 579.823 62.2546 579.843 68.8773C579.873 78.8801 580.145 89.1346 579.963 99.1281C579.735 111.568 581.312 125.4 579.906 137.636C577.025 139.852 560.564 139.465 555.706 139.537C551.001 139.683 546.125 139.643 541.405 139.668C541.545 143.036 542.472 147.963 538.615 149.4L537.427 148.726C535.039 145.232 535.597 143.837 535.828 139.576L481.608 140.628C470.25 140.895 458.834 141.191 447.483 141.123C443.651 140.61 439.19 141.155 438.578 136.297C437.455 127.378 437.732 118.269 437.442 109.272C437.031 96.5132 436.182 83.7663 436.537 71.0097C436.823 60.7169 442.5 62.1105 450.373 61.7185Z"/><path fill="#FEFEFE" d="M456.606 82.6072C462.599 82.4117 473.116 81.554 477.389 85.5347C486.442 93.9668 478.927 104.769 468.115 105.37C466.45 105.388 466.335 105.228 464.81 105.794C462.98 108.206 463.778 115.314 463.723 119.022L456.762 119.119L456.606 82.6072Z"/><path fill="#040203" d="M463.581 87.9827C469.573 88.5948 478.126 90.6385 471.329 98.1164C468.906 99.4546 466.41 100.721 464.099 98.9229C462.869 95.8993 463.469 91.4586 463.581 87.9827Z"/><path fill="#FEFEFE" d="M491.869 82.1078C499.69 81.4149 501.395 81.5641 508.403 84.9206C507.28 86.6469 506.149 88.3674 505.008 90.0822C500.731 88.4321 494.923 85.4771 491.804 90.2725C491.441 97.1289 506.078 97.3264 508.371 105.144C510.478 112.328 507.418 116.429 500.863 118.876C494.264 120.411 489.748 118.955 483.887 116.449L485.551 110.589C490.499 112.609 498.033 116.442 501.145 110.065C501.143 103.472 488.567 103.766 485.822 96.9674C483.113 90.2582 485.977 85.3475 491.869 82.1078Z"/><path fill="#FEFEFE" d="M528.34 81.6251C534.733 81.1999 537.012 82.2266 542.571 85.0187C541.346 86.6852 539.888 88.3674 538.56 89.9726C521.745 81.4075 514.28 104.74 526.884 112.315C530.655 114.582 536.071 112.201 539.919 110.748C540.79 112.268 541.71 114.159 542.534 115.739C536.276 119.264 529.214 120.948 522.483 117.516C518.16 115.264 514.96 111.325 513.642 106.632C510.283 94.7867 516.74 84.7841 528.34 81.6251Z"/><path fill="#626266" d="M138.205 33.6908C139.19 38.7933 139.002 45.7077 138.973 51.0277L138.303 48.1881C137.659 51.5318 138.158 54.4763 137.576 57.762C137.257 50.6343 137.897 41.0131 138.205 33.6908Z"/><path fill="#E2E2E2" d="M130.853 723.473L131.139 723.686C130.669 725.973 125.605 729.565 123.698 731.064L123.29 730.633C124.512 728.331 128.663 725.194 130.853 723.473Z"/></svg>